<svg width="33" height="27" viewBox="0 0 33 27" fill="none" xmlns="http://www.w3.org/2000/svg">
<g filter="url(#filter0_d_2_54)">
<path d="M31.7554 1.94103C31.8418 1.94103 31.9119 1.86815 31.9119 1.77825C31.9119 1.68836 31.8418 1.61548 31.7554 1.61548C31.669 1.61548 31.5989 1.68836 31.5989 1.77825C31.5989 1.86815 31.669 1.94103 31.7554 1.94103Z" fill="url(#paint0_linear_2_54)"/>
</g>
<g filter="url(#filter1_d_2_54)">
<path d="M5.94092 6.03804C6.16517 6.03804 6.34695 5.84898 6.34695 5.61576C6.34695 5.38254 6.16517 5.19348 5.94092 5.19348C5.71667 5.19348 5.53488 5.38254 5.53488 5.61576C5.53488 5.84898 5.71667 6.03804 5.94092 6.03804Z" fill="url(#paint1_linear_2_54)"/>
</g>
<g filter="url(#filter2_d_2_54)">
<path d="M1.75879 18.4063C1.98304 18.4063 2.16483 18.2173 2.16483 17.984C2.16483 17.7508 1.98304 17.5618 1.75879 17.5618C1.53454 17.5618 1.35275 17.7508 1.35275 17.984C1.35275 18.2173 1.53454 18.4063 1.75879 18.4063Z" fill="url(#paint2_linear_2_54)"/>
</g>
<g filter="url(#filter3_d_2_54)">
<path d="M25.7994 21.8016C26.0236 21.8016 26.2054 21.6125 26.2054 21.3793C26.2054 21.1461 26.0236 20.957 25.7994 20.957C25.5751 20.957 25.3933 21.1461 25.3933 21.3793C25.3933 21.6125 25.5751 21.8016 25.7994 21.8016Z" fill="url(#paint3_linear_2_54)"/>
</g>
<g filter="url(#filter4_d_2_54)">
<path d="M6.78417 14.6515C6.87061 14.6515 6.94069 14.5786 6.94069 14.4887C6.94069 14.3988 6.87061 14.3259 6.78417 14.3259C6.69773 14.3259 6.62766 14.3988 6.62766 14.4887C6.62766 14.5786 6.69773 14.6515 6.78417 14.6515Z" fill="url(#paint4_linear_2_54)"/>
</g>
<g filter="url(#filter5_d_2_54)">
<path d="M12.7809 1.51158C12.9167 1.51158 13.0268 1.39706 13.0268 1.25579C13.0268 1.11452 12.9167 1 12.7809 1C12.645 1 12.5349 1.11452 12.5349 1.25579C12.5349 1.39706 12.645 1.51158 12.7809 1.51158Z" fill="url(#paint5_linear_2_54)"/>
</g>
<g filter="url(#filter6_d_2_54)">
<path d="M3.48414 12.9061C3.40413 12.9187 3.32969 12.8679 3.30602 12.783C3.08414 12.0289 2.96745 11.9374 2.24182 11.965C2.15808 11.9675 2.08436 11.906 2.0723 11.8228C2.06008 11.7385 2.11225 11.6595 2.19265 11.6339C2.88669 11.4199 2.96142 11.3161 2.97862 10.5257C2.98067 10.438 3.03513 10.3669 3.11403 10.3545C3.19515 10.3417 3.26848 10.3929 3.29437 10.4773C3.51386 11.2306 3.63055 11.3221 4.35507 11.2946C4.4412 11.2929 4.51347 11.3525 4.52587 11.4379C4.53793 11.521 4.48797 11.5997 4.40536 11.6257C3.71053 11.8421 3.63675 11.9446 3.62177 12.7346C3.61767 12.8239 3.56193 12.894 3.48414 12.9061Z" fill="url(#paint6_linear_2_54)"/>
</g>
<path d="M16.8865 6.19353C16.6755 6.27642 16.5349 6.48608 16.5349 6.72008C16.5349 6.95408 16.6755 7.16364 16.8865 7.24653C18.5693 7.90318 19.8972 9.2842 20.5287 11.0344C20.6083 11.2537 20.8099 11.4001 21.0349 11.4001C21.2599 11.4001 21.4615 11.2537 21.5411 11.0344C22.1726 9.2842 23.5005 7.90318 25.1833 7.24653C25.3943 7.16364 25.5349 6.95408 25.5349 6.72008C25.5349 6.48608 25.3943 6.27642 25.1833 6.19353C23.5005 5.53688 22.1726 4.15583 21.5411 2.40566C21.4615 2.18629 21.2599 2.04004 21.0349 2.04004C20.8099 2.04004 20.6083 2.18629 20.5287 2.40566C19.8972 4.15583 18.5693 5.53688 16.8865 6.19353ZM11.149 5.61342C11.0271 5.33553 10.7599 5.16008 10.4693 5.16008C10.1787 5.16008 9.91148 5.33553 9.78958 5.61342C8.19229 9.20006 5.42064 12.0815 1.97082 13.7401C1.70363 13.8667 1.53488 14.1446 1.53488 14.4517C1.53488 14.7589 1.70363 15.0318 1.97082 15.1586C5.41943 16.8151 8.19339 19.698 9.78488 23.2853C9.90678 23.5632 10.174 23.7386 10.4646 23.7386C10.7552 23.7386 11.0224 23.5632 11.1443 23.2853C12.7388 19.6948 15.5106 16.8121 18.963 15.1537C19.2302 15.0271 19.399 14.7492 19.399 14.4469C19.399 14.1446 19.2302 13.8667 18.963 13.7401C15.5138 12.0849 12.7418 9.19996 11.149 5.61342ZM20.5287 18.0056C19.8972 19.7558 18.5693 21.1368 16.8865 21.7935C16.6755 21.8764 16.5349 22.0861 16.5349 22.3201C16.5349 22.5541 16.6755 22.7636 16.8865 22.8465C18.5693 23.5032 19.8972 24.8842 20.5287 26.6344C20.6083 26.8537 20.8099 27 21.0349 27C21.2599 27 21.4615 26.8537 21.5411 26.6344C22.1726 24.8842 23.5005 23.5032 25.1833 22.8465C25.3943 22.7636 25.5349 22.5541 25.5349 22.3201C25.5349 22.0861 25.3943 21.8764 25.1833 21.7935C23.5005 21.1368 22.1726 19.7558 21.5411 18.0056C21.4615 17.7863 21.2599 17.6401 21.0349 17.6401C20.8099 17.6401 20.6083 17.7863 20.5287 18.0056Z" fill="url(#paint7_linear_2_54)"/>
<path d="M13.2283 16.0857C6.06413 18.6733 0.59967 21.7987 1.02303 23.0665C1.44639 24.3342 7.59725 23.2643 14.7614 20.6767C21.9255 18.0891 27.39 14.9637 26.9666 13.696C26.5432 12.4282 20.3924 13.4981 13.2283 16.0857Z" stroke="url(#paint8_linear_2_54)" stroke-width="0.549291"/>
<g style="mix-blend-mode:screen" filter="url(#filter7_f_2_54)">
<path d="M13.2283 16.0855C6.06413 18.6731 0.59967 21.7985 1.02303 23.0662C1.44639 24.334 7.59725 23.2641 14.7614 20.6765C21.9255 18.0889 27.39 14.9635 26.9666 13.6957C26.5432 12.4279 20.3924 13.4979 13.2283 16.0855Z" stroke="url(#paint9_linear_2_54)" stroke-width="0.549291"/>
</g>
<g filter="url(#filter8_d_2_54)">
<path d="M24.1286 7.36177C24.0182 7.34534 23.9393 7.24737 23.9404 7.12559C23.9353 6.03816 23.8161 5.86916 22.8473 5.60594C22.7358 5.57474 22.6619 5.46284 22.6777 5.34812C22.6938 5.23175 22.7929 5.14897 22.9088 5.14834C23.907 5.15229 24.0454 5.046 24.3698 4.0094C24.406 3.89443 24.5051 3.82298 24.614 3.8392C24.726 3.85589 24.8033 3.95363 24.8052 4.07593C24.8076 5.16124 24.9267 5.33034 25.894 5.59325C26.0084 5.62653 26.0811 5.735 26.0649 5.85294C26.0491 5.96765 25.953 6.05096 25.834 6.05116C24.8338 6.05012 24.6972 6.15496 24.3759 7.19204C24.3364 7.30821 24.236 7.37778 24.1286 7.36177Z" fill="url(#paint10_linear_2_54)"/>
</g>
<defs>
<filter id="filter0_d_2_54" x="31.2574" y="1.27399" width="0.995972" height="1.00852" filterUnits="userSpaceOnUse" color-interpolation-filters="sRGB">
<feFlood flood-opacity="0" result="BackgroundImageFix"/>
<feColorMatrix in="SourceAlpha" type="matrix" values="0 0 0 0 0 0 0 0 0 0 0 0 0 0 0 0 0 0 127 0" result="hardAlpha"/>
<feOffset/>
<feGaussianBlur stdDeviation="0.170743"/>
<feComposite in2="hardAlpha" operator="out"/>
<feColorMatrix type="matrix" values="0 0 0 0 0.592157 0 0 0 0 0.392157 0 0 0 0 1 0 0 0 1 0"/>
<feBlend mode="normal" in2="BackgroundImageFix" result="effect1_dropShadow_2_54"/>
<feBlend mode="normal" in="SourceGraphic" in2="effect1_dropShadow_2_54" result="shape"/>
</filter>
<filter id="filter1_d_2_54" x="4.64898" y="4.30758" width="2.58387" height="2.61635" filterUnits="userSpaceOnUse" color-interpolation-filters="sRGB">
<feFlood flood-opacity="0" result="BackgroundImageFix"/>
<feColorMatrix in="SourceAlpha" type="matrix" values="0 0 0 0 0 0 0 0 0 0 0 0 0 0 0 0 0 0 127 0" result="hardAlpha"/>
<feOffset/>
<feGaussianBlur stdDeviation="0.442949"/>
<feComposite in2="hardAlpha" operator="out"/>
<feColorMatrix type="matrix" values="0 0 0 0 0.592157 0 0 0 0 0.392157 0 0 0 0 1 0 0 0 1 0"/>
<feBlend mode="normal" in2="BackgroundImageFix" result="effect1_dropShadow_2_54"/>
<feBlend mode="normal" in="SourceGraphic" in2="effect1_dropShadow_2_54" result="shape"/>
</filter>
<filter id="filter2_d_2_54" x="0.466855" y="16.6759" width="2.58388" height="2.61629" filterUnits="userSpaceOnUse" color-interpolation-filters="sRGB">
<feFlood flood-opacity="0" result="BackgroundImageFix"/>
<feColorMatrix in="SourceAlpha" type="matrix" values="0 0 0 0 0 0 0 0 0 0 0 0 0 0 0 0 0 0 127 0" result="hardAlpha"/>
<feOffset/>
<feGaussianBlur stdDeviation="0.442949"/>
<feComposite in2="hardAlpha" operator="out"/>
<feColorMatrix type="matrix" values="0 0 0 0 0.592157 0 0 0 0 0.392157 0 0 0 0 1 0 0 0 1 0"/>
<feBlend mode="normal" in2="BackgroundImageFix" result="effect1_dropShadow_2_54"/>
<feBlend mode="normal" in="SourceGraphic" in2="effect1_dropShadow_2_54" result="shape"/>
</filter>
<filter id="filter3_d_2_54" x="24.5074" y="20.0711" width="2.5839" height="2.6164" filterUnits="userSpaceOnUse" color-interpolation-filters="sRGB">
<feFlood flood-opacity="0" result="BackgroundImageFix"/>
<feColorMatrix in="SourceAlpha" type="matrix" values="0 0 0 0 0 0 0 0 0 0 0 0 0 0 0 0 0 0 127 0" result="hardAlpha"/>
<feOffset/>
<feGaussianBlur stdDeviation="0.442949"/>
<feComposite in2="hardAlpha" operator="out"/>
<feColorMatrix type="matrix" values="0 0 0 0 0.592157 0 0 0 0 0.392157 0 0 0 0 1 0 0 0 1 0"/>
<feBlend mode="normal" in2="BackgroundImageFix" result="effect1_dropShadow_2_54"/>
<feBlend mode="normal" in="SourceGraphic" in2="effect1_dropShadow_2_54" result="shape"/>
</filter>
<filter id="filter4_d_2_54" x="6.28617" y="13.9844" width="0.996002" height="1.00856" filterUnits="userSpaceOnUse" color-interpolation-filters="sRGB">
<feFlood flood-opacity="0" result="BackgroundImageFix"/>
<feColorMatrix in="SourceAlpha" type="matrix" values="0 0 0 0 0 0 0 0 0 0 0 0 0 0 0 0 0 0 127 0" result="hardAlpha"/>
<feOffset/>
<feGaussianBlur stdDeviation="0.170743"/>
<feComposite in2="hardAlpha" operator="out"/>
<feColorMatrix type="matrix" values="0 0 0 0 0.592157 0 0 0 0 0.392157 0 0 0 0 1 0 0 0 1 0"/>
<feBlend mode="normal" in2="BackgroundImageFix" result="effect1_dropShadow_2_54"/>
<feBlend mode="normal" in="SourceGraphic" in2="effect1_dropShadow_2_54" result="shape"/>
</filter>
<filter id="filter5_d_2_54" x="11.9982" y="0.463378" width="1.56514" height="1.58483" filterUnits="userSpaceOnUse" color-interpolation-filters="sRGB">
<feFlood flood-opacity="0" result="BackgroundImageFix"/>
<feColorMatrix in="SourceAlpha" type="matrix" values="0 0 0 0 0 0 0 0 0 0 0 0 0 0 0 0 0 0 127 0" result="hardAlpha"/>
<feOffset/>
<feGaussianBlur stdDeviation="0.268311"/>
<feComposite in2="hardAlpha" operator="out"/>
<feColorMatrix type="matrix" values="0 0 0 0 0.592157 0 0 0 0 0.392157 0 0 0 0 1 0 0 0 1 0"/>
<feBlend mode="normal" in2="BackgroundImageFix" result="effect1_dropShadow_2_54"/>
<feBlend mode="normal" in="SourceGraphic" in2="effect1_dropShadow_2_54" result="shape"/>
</filter>
<filter id="filter6_d_2_54" x="0.988902" y="9.55252" width="4.62038" height="4.71871" filterUnits="userSpaceOnUse" color-interpolation-filters="sRGB">
<feFlood flood-opacity="0" result="BackgroundImageFix"/>
<feColorMatrix in="SourceAlpha" type="matrix" values="0 0 0 0 0 0 0 0 0 0 0 0 0 0 0 0 0 0 127 0" result="hardAlpha"/>
<feOffset dy="0.281606"/>
<feGaussianBlur stdDeviation="0.540812"/>
<feComposite in2="hardAlpha" operator="out"/>
<feColorMatrix type="matrix" values="0 0 0 0 0.220722 0 0 0 0 0.210451 0 0 0 0 0.241667 0 0 0 0.6 0"/>
<feBlend mode="normal" in2="BackgroundImageFix" result="effect1_dropShadow_2_54"/>
<feBlend mode="normal" in="SourceGraphic" in2="effect1_dropShadow_2_54" result="shape"/>
</filter>
<filter id="filter7_f_2_54" x="0.470792" y="12.6334" width="27.048" height="11.4952" filterUnits="userSpaceOnUse" color-interpolation-filters="sRGB">
<feFlood flood-opacity="0" result="BackgroundImageFix"/>
<feBlend mode="normal" in="SourceGraphic" in2="BackgroundImageFix" result="shape"/>
<feGaussianBlur stdDeviation="0.127195" result="effect1_foregroundBlur_2_54"/>
</filter>
<filter id="filter8_d_2_54" x="20.5451" y="2.26113" width="7.65249" height="7.78805" filterUnits="userSpaceOnUse" color-interpolation-filters="sRGB">
<feFlood flood-opacity="0" result="BackgroundImageFix"/>
<feColorMatrix in="SourceAlpha" type="matrix" values="0 0 0 0 0 0 0 0 0 0 0 0 0 0 0 0 0 0 127 0" result="hardAlpha"/>
<feOffset dy="0.554677"/>
<feGaussianBlur stdDeviation="1.06523"/>
<feComposite in2="hardAlpha" operator="out"/>
<feColorMatrix type="matrix" values="0 0 0 0 0.296824 0 0 0 0 0.244184 0 0 0 0 0.404167 0 0 0 0.6 0"/>
<feBlend mode="normal" in2="BackgroundImageFix" result="effect1_dropShadow_2_54"/>
<feBlend mode="normal" in="SourceGraphic" in2="effect1_dropShadow_2_54" result="shape"/>
</filter>
<linearGradient id="paint0_linear_2_54" x1="31.6081" y1="1.76142" x2="31.9193" y2="1.7677" gradientUnits="userSpaceOnUse">
<stop stop-color="#26A4FF"/>
<stop offset="1" stop-color="#0D9AFF"/>
</linearGradient>
<linearGradient id="paint1_linear_2_54" x1="5.55894" y1="5.57208" x2="6.36629" y2="5.58843" gradientUnits="userSpaceOnUse">
<stop stop-color="#26A4FF"/>
<stop offset="1" stop-color="#0D9AFF"/>
</linearGradient>
<linearGradient id="paint2_linear_2_54" x1="1.37681" y1="17.9404" x2="2.18417" y2="17.9566" gradientUnits="userSpaceOnUse">
<stop stop-color="#26A4FF"/>
<stop offset="1" stop-color="#0D9AFF"/>
</linearGradient>
<linearGradient id="paint3_linear_2_54" x1="25.4175" y1="21.3356" x2="26.2248" y2="21.352" gradientUnits="userSpaceOnUse">
<stop stop-color="#26A4FF"/>
<stop offset="1" stop-color="#0D9AFF"/>
</linearGradient>
<linearGradient id="paint4_linear_2_54" x1="6.63694" y1="14.472" x2="6.94815" y2="14.4782" gradientUnits="userSpaceOnUse">
<stop stop-color="#26A4FF"/>
<stop offset="1" stop-color="#0D9AFF"/>
</linearGradient>
<linearGradient id="paint5_linear_2_54" x1="12.5495" y1="1.22933" x2="13.0385" y2="1.23921" gradientUnits="userSpaceOnUse">
<stop stop-color="#26A4FF"/>
<stop offset="1" stop-color="#0D9AFF"/>
</linearGradient>
<linearGradient id="paint6_linear_2_54" x1="4.43403" y1="11.3173" x2="1.99721" y2="11.7212" gradientUnits="userSpaceOnUse">
<stop stop-color="#26A4FF"/>
<stop offset="1" stop-color="#0D9AFF"/>
</linearGradient>
<linearGradient id="paint7_linear_2_54" x1="1.53488" y1="2.04004" x2="26.4757" y2="26.0216" gradientUnits="userSpaceOnUse">
<stop stop-color="#868CFF"/>
<stop offset="1" stop-color="#4318FF"/>
</linearGradient>
<linearGradient id="paint8_linear_2_54" x1="1.43908" y1="24.8028" x2="0.370687" y2="21.7888" gradientUnits="userSpaceOnUse">
<stop stop-color="#3F5FFF"/>
<stop offset="1" stop-color="#3F5FFF" stop-opacity="0"/>
</linearGradient>
<linearGradient id="paint9_linear_2_54" x1="1.43908" y1="24.8025" x2="0.370687" y2="21.7886" gradientUnits="userSpaceOnUse">
<stop stop-color="#1DA0FF"/>
<stop offset="1" stop-color="#199FFF" stop-opacity="0.13"/>
</linearGradient>
<linearGradient id="paint10_linear_2_54" x1="25.9896" y1="5.65576" x2="22.6083" y2="5.25926" gradientUnits="userSpaceOnUse">
<stop stop-color="#26A4FF"/>
<stop offset="1" stop-color="#0D9AFF"/>
</linearGradient>
</defs>
</svg>
