<svg width="478" height="139" viewBox="0 0 478 139" fill="none" xmlns="http://www.w3.org/2000/svg">
<path d="M140.226 98L136.6 84.902H121.282L117.73 98H107.962L122.466 46.348H135.934L150.512 98H140.226ZM129.274 55.894H128.682L122.984 76.984H134.972L129.274 55.894ZM156.921 90.526H166.393V67.29H156.921V59.816H175.865V70.25H176.457C176.802 68.918 177.271 67.6353 177.863 66.402C178.504 65.1193 179.294 64.0093 180.231 63.072C181.218 62.0853 182.402 61.296 183.783 60.704C185.164 60.112 186.817 59.816 188.741 59.816H192.885V68.696H185.041C182.18 68.696 179.935 69.5347 178.307 71.212C176.679 72.8893 175.865 75.0353 175.865 77.65V90.526H189.111V98H156.921V90.526ZM220.532 98C216.882 98 214.193 97.038 212.466 95.114C210.74 93.19 209.876 90.6987 209.876 87.64V67.29H198.776V59.816H206.324C207.854 59.816 208.939 59.52 209.58 58.928C210.222 58.2867 210.542 57.1767 210.542 55.598V46.348H219.348V59.816H234.888V67.29H219.348V90.526H234.888V98H220.532ZM264.681 53.896C262.461 53.896 260.883 53.4273 259.945 52.49C259.057 51.5527 258.613 50.418 258.613 49.086V47.31C258.613 45.978 259.057 44.8433 259.945 43.906C260.883 42.9687 262.461 42.5 264.681 42.5C266.901 42.5 268.455 42.9687 269.343 43.906C270.281 44.8433 270.749 45.978 270.749 47.31V49.086C270.749 50.418 270.281 51.5527 269.343 52.49C268.455 53.4273 266.901 53.896 264.681 53.896ZM247.365 90.526H259.945V67.29H247.365V59.816H269.417V90.526H281.109V98H247.365V90.526ZM290.034 90.526H301.726V67.29H289.294V59.816H301.726V53.6C301.726 52.0707 301.924 50.6893 302.318 49.456C302.762 48.1733 303.428 47.088 304.316 46.2C305.204 45.2627 306.314 44.5473 307.646 44.054C309.028 43.5113 310.631 43.24 312.456 43.24H325.332V50.714H311.198V59.816H325.332V67.29H311.198V90.526H323.63V98H290.034V90.526ZM361.489 59.816H371.109L352.831 104.808C351.795 107.423 350.414 109.396 348.687 110.728C346.961 112.109 344.519 112.8 341.361 112.8H334.405V105.326H343.507L346.393 97.63L331.001 59.816H341.065L346.911 75.8L350.981 87.936H351.499L355.569 75.8L361.489 59.816ZM406.453 98L402.827 84.902H387.509L383.957 98H374.189L388.693 46.348H402.161L416.739 98H406.453ZM395.501 55.894H394.909L389.211 76.984H401.199L395.501 55.894ZM423.37 98V90.748H434.988V53.6H423.37V46.348H456.226V53.6H444.608V90.748H456.226V98H423.37Z" fill="url(#paint0_linear_2_30)"/>
<g filter="url(#filter0_d_2_30)">
<path d="M107.866 31.8414C108.127 31.8414 108.339 31.6214 108.339 31.3499C108.339 31.0785 108.127 30.8584 107.866 30.8584C107.605 30.8584 107.393 31.0785 107.393 31.3499C107.393 31.6214 107.605 31.8414 107.866 31.8414Z" fill="url(#paint1_linear_2_30)"/>
</g>
<g filter="url(#filter1_d_2_30)">
<path d="M29.9192 44.2124C30.5963 44.2124 31.1452 43.6415 31.1452 42.9373C31.1452 42.2331 30.5963 41.6622 29.9192 41.6622C29.242 41.6622 28.6931 42.2331 28.6931 42.9373C28.6931 43.6415 29.242 44.2124 29.9192 44.2124Z" fill="url(#paint2_linear_2_30)"/>
</g>
<g filter="url(#filter2_d_2_30)">
<path d="M17.2912 81.5584C17.9683 81.5584 18.5172 80.9878 18.5172 80.2833C18.5172 79.5792 17.9683 79.0085 17.2912 79.0085C16.6141 79.0085 16.0651 79.5792 16.0651 80.2833C16.0651 80.9878 16.6141 81.5584 17.2912 81.5584Z" fill="url(#paint3_linear_2_30)"/>
</g>
<g filter="url(#filter3_d_2_30)">
<path d="M89.8819 91.8106C90.5588 91.8106 91.1078 91.2396 91.1078 90.5354C91.1078 89.8313 90.5588 89.2603 89.8819 89.2603C89.2046 89.2603 88.6556 89.8313 88.6556 90.5354C88.6556 91.2396 89.2046 91.8106 89.8819 91.8106Z" fill="url(#paint4_linear_2_30)"/>
</g>
<g filter="url(#filter4_d_2_30)">
<path d="M32.4654 70.2208C32.7264 70.2208 32.9379 70.0007 32.9379 69.7292C32.9379 69.4578 32.7264 69.2376 32.4654 69.2376C32.2044 69.2376 31.9928 69.4578 31.9928 69.7292C31.9928 70.0007 32.2044 70.2208 32.4654 70.2208Z" fill="url(#paint5_linear_2_30)"/>
</g>
<g filter="url(#filter5_d_2_30)">
<path d="M50.5724 30.5447C50.9824 30.5447 51.3149 30.1989 51.3149 29.7724C51.3149 29.3458 50.9824 29 50.5724 29C50.162 29 49.8296 29.3458 49.8296 29.7724C49.8296 30.1989 50.162 30.5447 50.5724 30.5447Z" fill="url(#paint6_linear_2_30)"/>
</g>
<g filter="url(#filter6_d_2_30)">
<path d="M22.5009 64.9506C22.2593 64.9886 22.0345 64.8352 21.963 64.5788C21.2931 62.3018 20.9407 62.0256 18.7497 62.1089C18.4968 62.1164 18.2742 61.9307 18.2378 61.6795C18.2009 61.425 18.3584 61.1864 18.6012 61.1091C20.6969 60.463 20.9225 60.1495 20.9744 57.7629C20.9806 57.4981 21.1451 57.2834 21.3833 57.246C21.6283 57.2073 21.8497 57.3619 21.9279 57.6168C22.5906 59.8914 22.9429 60.1677 25.1306 60.0846C25.3907 60.0795 25.6089 60.2594 25.6464 60.5173C25.6828 60.7682 25.5319 61.0059 25.2825 61.0844C23.1844 61.7378 22.9617 62.0473 22.9164 64.4327C22.9041 64.7023 22.7358 64.914 22.5009 64.9506Z" fill="url(#paint7_linear_2_30)"/>
</g>
<path d="M63.6944 44.6469C63.0526 44.8993 62.625 45.5376 62.625 46.2501C62.625 46.9626 63.0526 47.6007 63.6944 47.8531C68.813 49.8525 72.852 54.0576 74.7728 59.3867C75.0149 60.0545 75.6281 60.5002 76.3125 60.5002C76.9969 60.5002 77.6101 60.0545 77.8522 59.3867C79.773 54.0576 83.812 49.8525 88.9306 47.8531C89.5723 47.6007 90 46.9626 90 46.2501C90 45.5376 89.5723 44.8993 88.9306 44.6469C83.812 42.6474 79.773 38.4423 77.8522 33.1133C77.6101 32.4453 76.9969 32 76.3125 32C75.6281 32 75.0149 32.4453 74.7728 33.1133C72.852 38.4423 68.813 42.6474 63.6944 44.6469ZM46.2429 42.8805C45.8721 42.0344 45.0593 41.5001 44.1754 41.5001C43.2916 41.5001 42.4788 42.0344 42.1081 42.8805C37.2496 53.8014 28.8192 62.575 18.326 67.6252C17.5133 68.0107 17 68.8569 17 69.792C17 70.7274 17.5133 71.5583 18.326 71.9444C28.8155 76.9882 37.253 85.7663 42.0938 96.6892C42.4646 97.5354 43.2773 98.0694 44.1611 98.0694C45.045 98.0694 45.8578 97.5354 46.2286 96.6892C51.0785 85.7566 59.5094 76.9791 70.0105 71.9295C70.8232 71.544 71.3366 70.6978 71.3366 69.7774C71.3366 68.8569 70.8232 68.0107 70.0105 67.6252C59.5191 62.5854 51.0876 53.8011 46.2429 42.8805ZM74.7728 80.6132C72.852 85.9423 68.813 90.1473 63.6944 92.1468C63.0526 92.3993 62.625 93.0378 62.625 93.7503C62.625 94.4628 63.0526 95.1007 63.6944 95.3531C68.813 97.3527 72.852 101.558 74.7728 106.887C75.0149 107.555 75.6281 108 76.3125 108C76.9969 108 77.6101 107.555 77.8522 106.887C79.773 101.558 83.812 97.3527 88.9306 95.3531C89.5723 95.1007 90 94.4628 90 93.7503C90 93.0378 89.5723 92.3993 88.9306 92.1468C83.812 90.1473 79.773 85.9423 77.8522 80.6132C77.6101 79.9454 76.9969 79.5003 76.3125 79.5003C75.6281 79.5003 75.0149 79.9454 74.7728 80.6132Z" fill="url(#paint8_linear_2_30)"/>
<path d="M51.6995 75.4018C30.1985 82.8395 13.7985 91.8231 15.0691 95.4672C16.3397 99.1111 34.7997 96.0358 56.3006 88.5981C77.8015 81.1603 94.2016 72.1768 92.9309 68.5329C91.6602 64.8888 73.2004 67.9641 51.6995 75.4018Z" stroke="url(#paint9_linear_2_30)" stroke-width="1.5"/>
<g style="mix-blend-mode:screen" filter="url(#filter7_f_2_30)">
<path d="M51.9233 74.5508C30.2912 82.3641 13.7912 91.8012 15.0695 95.629C16.3479 99.4572 34.9204 96.2266 56.5525 88.4133C78.1846 80.6001 94.6847 71.1629 93.4062 67.3348C92.1278 63.5066 73.5554 66.7375 51.9233 74.5508Z" stroke="url(#paint10_linear_2_30)" stroke-width="1.5"/>
</g>
<g filter="url(#filter8_d_2_30)">
<path d="M84.8369 48.2094C84.5035 48.1598 84.2653 47.864 84.2686 47.4963C84.2532 44.2128 83.8933 43.7025 80.968 42.9077C80.6313 42.8135 80.4082 42.4756 80.4559 42.1292C80.5045 41.7778 80.8037 41.5279 81.1537 41.526C84.1677 41.5379 84.5856 41.2169 85.5652 38.0869C85.6745 37.7398 85.9737 37.524 86.3025 37.573C86.6407 37.6234 86.8741 37.9185 86.8799 38.2878C86.8871 41.5649 87.2467 42.0755 90.1675 42.8694C90.5129 42.9699 90.7325 43.2974 90.6835 43.6535C90.6358 43.9999 90.3457 44.2514 89.9863 44.252C86.9662 44.2489 86.5538 44.5654 85.5836 47.6969C85.4643 48.0477 85.1612 48.2578 84.8369 48.2094Z" fill="url(#paint11_linear_2_30)"/>
</g>
<defs>
<filter id="filter0_d_2_30" x="107.052" y="30.517" width="1.62808" height="1.66597" filterUnits="userSpaceOnUse" color-interpolation-filters="sRGB">
<feFlood flood-opacity="0" result="BackgroundImageFix"/>
<feColorMatrix in="SourceAlpha" type="matrix" values="0 0 0 0 0 0 0 0 0 0 0 0 0 0 0 0 0 0 127 0" result="hardAlpha"/>
<feOffset/>
<feGaussianBlur stdDeviation="0.170743"/>
<feComposite in2="hardAlpha" operator="out"/>
<feColorMatrix type="matrix" values="0 0 0 0 0.592157 0 0 0 0 0.392157 0 0 0 0 1 0 0 0 1 0"/>
<feBlend mode="normal" in2="BackgroundImageFix" result="effect1_dropShadow_2_30"/>
<feBlend mode="normal" in="SourceGraphic" in2="effect1_dropShadow_2_30" result="shape"/>
</filter>
<filter id="filter1_d_2_30" x="27.8072" y="40.7763" width="4.22385" height="4.32195" filterUnits="userSpaceOnUse" color-interpolation-filters="sRGB">
<feFlood flood-opacity="0" result="BackgroundImageFix"/>
<feColorMatrix in="SourceAlpha" type="matrix" values="0 0 0 0 0 0 0 0 0 0 0 0 0 0 0 0 0 0 127 0" result="hardAlpha"/>
<feOffset/>
<feGaussianBlur stdDeviation="0.442949"/>
<feComposite in2="hardAlpha" operator="out"/>
<feColorMatrix type="matrix" values="0 0 0 0 0.592157 0 0 0 0 0.392157 0 0 0 0 1 0 0 0 1 0"/>
<feBlend mode="normal" in2="BackgroundImageFix" result="effect1_dropShadow_2_30"/>
<feBlend mode="normal" in="SourceGraphic" in2="effect1_dropShadow_2_30" result="shape"/>
</filter>
<filter id="filter2_d_2_30" x="15.1792" y="78.1226" width="4.22388" height="4.32177" filterUnits="userSpaceOnUse" color-interpolation-filters="sRGB">
<feFlood flood-opacity="0" result="BackgroundImageFix"/>
<feColorMatrix in="SourceAlpha" type="matrix" values="0 0 0 0 0 0 0 0 0 0 0 0 0 0 0 0 0 0 127 0" result="hardAlpha"/>
<feOffset/>
<feGaussianBlur stdDeviation="0.442949"/>
<feComposite in2="hardAlpha" operator="out"/>
<feColorMatrix type="matrix" values="0 0 0 0 0.592157 0 0 0 0 0.392157 0 0 0 0 1 0 0 0 1 0"/>
<feBlend mode="normal" in2="BackgroundImageFix" result="effect1_dropShadow_2_30"/>
<feBlend mode="normal" in="SourceGraphic" in2="effect1_dropShadow_2_30" result="shape"/>
</filter>
<filter id="filter3_d_2_30" x="87.7697" y="88.3744" width="4.22394" height="4.32207" filterUnits="userSpaceOnUse" color-interpolation-filters="sRGB">
<feFlood flood-opacity="0" result="BackgroundImageFix"/>
<feColorMatrix in="SourceAlpha" type="matrix" values="0 0 0 0 0 0 0 0 0 0 0 0 0 0 0 0 0 0 127 0" result="hardAlpha"/>
<feOffset/>
<feGaussianBlur stdDeviation="0.442949"/>
<feComposite in2="hardAlpha" operator="out"/>
<feColorMatrix type="matrix" values="0 0 0 0 0.592157 0 0 0 0 0.392157 0 0 0 0 1 0 0 0 1 0"/>
<feBlend mode="normal" in2="BackgroundImageFix" result="effect1_dropShadow_2_30"/>
<feBlend mode="normal" in="SourceGraphic" in2="effect1_dropShadow_2_30" result="shape"/>
</filter>
<filter id="filter4_d_2_30" x="31.6513" y="68.8962" width="1.62817" height="1.66613" filterUnits="userSpaceOnUse" color-interpolation-filters="sRGB">
<feFlood flood-opacity="0" result="BackgroundImageFix"/>
<feColorMatrix in="SourceAlpha" type="matrix" values="0 0 0 0 0 0 0 0 0 0 0 0 0 0 0 0 0 0 127 0" result="hardAlpha"/>
<feOffset/>
<feGaussianBlur stdDeviation="0.170743"/>
<feComposite in2="hardAlpha" operator="out"/>
<feColorMatrix type="matrix" values="0 0 0 0 0.592157 0 0 0 0 0.392157 0 0 0 0 1 0 0 0 1 0"/>
<feBlend mode="normal" in2="BackgroundImageFix" result="effect1_dropShadow_2_30"/>
<feBlend mode="normal" in="SourceGraphic" in2="effect1_dropShadow_2_30" result="shape"/>
</filter>
<filter id="filter5_d_2_30" x="49.293" y="28.4634" width="2.55853" height="2.61796" filterUnits="userSpaceOnUse" color-interpolation-filters="sRGB">
<feFlood flood-opacity="0" result="BackgroundImageFix"/>
<feColorMatrix in="SourceAlpha" type="matrix" values="0 0 0 0 0 0 0 0 0 0 0 0 0 0 0 0 0 0 127 0" result="hardAlpha"/>
<feOffset/>
<feGaussianBlur stdDeviation="0.268311"/>
<feComposite in2="hardAlpha" operator="out"/>
<feColorMatrix type="matrix" values="0 0 0 0 0.592157 0 0 0 0 0.392157 0 0 0 0 1 0 0 0 1 0"/>
<feBlend mode="normal" in2="BackgroundImageFix" result="effect1_dropShadow_2_30"/>
<feBlend mode="normal" in="SourceGraphic" in2="effect1_dropShadow_2_30" result="shape"/>
</filter>
<filter id="filter6_d_2_30" x="17.1508" y="56.4401" width="9.58257" height="9.87948" filterUnits="userSpaceOnUse" color-interpolation-filters="sRGB">
<feFlood flood-opacity="0" result="BackgroundImageFix"/>
<feColorMatrix in="SourceAlpha" type="matrix" values="0 0 0 0 0 0 0 0 0 0 0 0 0 0 0 0 0 0 127 0" result="hardAlpha"/>
<feOffset dy="0.281606"/>
<feGaussianBlur stdDeviation="0.540812"/>
<feComposite in2="hardAlpha" operator="out"/>
<feColorMatrix type="matrix" values="0 0 0 0 0.220722 0 0 0 0 0.210451 0 0 0 0 0.241667 0 0 0 0.6 0"/>
<feBlend mode="normal" in2="BackgroundImageFix" result="effect1_dropShadow_2_30"/>
<feBlend mode="normal" in="SourceGraphic" in2="effect1_dropShadow_2_30" result="shape"/>
</filter>
<filter id="filter7_f_2_30" x="13.9951" y="64.7201" width="80.4855" height="33.5237" filterUnits="userSpaceOnUse" color-interpolation-filters="sRGB">
<feFlood flood-opacity="0" result="BackgroundImageFix"/>
<feBlend mode="normal" in="SourceGraphic" in2="BackgroundImageFix" result="shape"/>
<feGaussianBlur stdDeviation="0.127195" result="effect1_foregroundBlur_2_30"/>
</filter>
<filter id="filter8_d_2_30" x="78.319" y="35.9903" width="14.5018" height="14.9111" filterUnits="userSpaceOnUse" color-interpolation-filters="sRGB">
<feFlood flood-opacity="0" result="BackgroundImageFix"/>
<feColorMatrix in="SourceAlpha" type="matrix" values="0 0 0 0 0 0 0 0 0 0 0 0 0 0 0 0 0 0 127 0" result="hardAlpha"/>
<feOffset dy="0.554677"/>
<feGaussianBlur stdDeviation="1.06523"/>
<feComposite in2="hardAlpha" operator="out"/>
<feColorMatrix type="matrix" values="0 0 0 0 0.296824 0 0 0 0 0.244184 0 0 0 0 0.404167 0 0 0 0.6 0"/>
<feBlend mode="normal" in2="BackgroundImageFix" result="effect1_dropShadow_2_30"/>
<feBlend mode="normal" in="SourceGraphic" in2="effect1_dropShadow_2_30" result="shape"/>
</filter>
<linearGradient id="paint0_linear_2_30" x1="117.354" y1="35.0909" x2="158.977" y2="159.154" gradientUnits="userSpaceOnUse">
<stop stop-color="#868CFF"/>
<stop offset="1" stop-color="#4318FF"/>
</linearGradient>
<linearGradient id="paint1_linear_2_30" x1="107.421" y1="31.2991" x2="108.361" y2="31.3181" gradientUnits="userSpaceOnUse">
<stop stop-color="#26A4FF"/>
<stop offset="1" stop-color="#0D9AFF"/>
</linearGradient>
<linearGradient id="paint2_linear_2_30" x1="28.7658" y1="42.8054" x2="31.2036" y2="42.8548" gradientUnits="userSpaceOnUse">
<stop stop-color="#26A4FF"/>
<stop offset="1" stop-color="#0D9AFF"/>
</linearGradient>
<linearGradient id="paint3_linear_2_30" x1="16.1378" y1="80.1517" x2="18.5756" y2="80.2006" gradientUnits="userSpaceOnUse">
<stop stop-color="#26A4FF"/>
<stop offset="1" stop-color="#0D9AFF"/>
</linearGradient>
<linearGradient id="paint4_linear_2_30" x1="88.7287" y1="90.4035" x2="91.1663" y2="90.453" gradientUnits="userSpaceOnUse">
<stop stop-color="#26A4FF"/>
<stop offset="1" stop-color="#0D9AFF"/>
</linearGradient>
<linearGradient id="paint5_linear_2_30" x1="32.0208" y1="69.6788" x2="32.9605" y2="69.6975" gradientUnits="userSpaceOnUse">
<stop stop-color="#26A4FF"/>
<stop offset="1" stop-color="#0D9AFF"/>
</linearGradient>
<linearGradient id="paint6_linear_2_30" x1="49.8737" y1="29.6925" x2="51.3502" y2="29.7223" gradientUnits="userSpaceOnUse">
<stop stop-color="#26A4FF"/>
<stop offset="1" stop-color="#0D9AFF"/>
</linearGradient>
<linearGradient id="paint7_linear_2_30" x1="25.3691" y1="60.1532" x2="18.0111" y2="61.3727" gradientUnits="userSpaceOnUse">
<stop stop-color="#26A4FF"/>
<stop offset="1" stop-color="#0D9AFF"/>
</linearGradient>
<linearGradient id="paint8_linear_2_30" x1="17" y1="32" x2="92.9384" y2="104.941" gradientUnits="userSpaceOnUse">
<stop stop-color="#868CFF"/>
<stop offset="1" stop-color="#4318FF"/>
</linearGradient>
<linearGradient id="paint9_linear_2_30" x1="16.3178" y1="100.458" x2="13.3492" y2="91.7139" gradientUnits="userSpaceOnUse">
<stop stop-color="#3F5FFF"/>
<stop offset="1" stop-color="#3F5FFF" stop-opacity="0"/>
</linearGradient>
<linearGradient id="paint10_linear_2_30" x1="16.3258" y1="100.872" x2="13.0998" y2="91.7713" gradientUnits="userSpaceOnUse">
<stop stop-color="#1DA0FF"/>
<stop offset="1" stop-color="#199FFF" stop-opacity="0.13"/>
</linearGradient>
<linearGradient id="paint11_linear_2_30" x1="90.4562" y1="43.0581" x2="80.2463" y2="41.8609" gradientUnits="userSpaceOnUse">
<stop stop-color="#26A4FF"/>
<stop offset="1" stop-color="#0D9AFF"/>
</linearGradient>
</defs>
</svg>
