<svg width="155" height="33" viewBox="0 0 155 33" fill="none" xmlns="http://www.w3.org/2000/svg">
<path d="M45.4816 26L44.2566 21.575H39.0816L37.8816 26H34.5816L39.4816 8.55H44.0316L48.9566 26H45.4816ZM41.7816 11.775H41.5816L39.6566 18.9H43.7066L41.7816 11.775ZM51.1218 23.475H54.3218V15.625H51.1218V13.1H57.5218V16.625H57.7218C57.8385 16.175 57.9968 15.7417 58.1968 15.325C58.4135 14.8917 58.6801 14.5167 58.9968 14.2C59.3301 13.8667 59.7301 13.6 60.1968 13.4C60.6635 13.2 61.2218 13.1 61.8718 13.1H63.2718V16.1H60.6218C59.6551 16.1 58.8968 16.3833 58.3468 16.95C57.7968 17.5167 57.5218 18.2417 57.5218 19.125V23.475H61.9968V26H51.1218V23.475ZM72.612 26C71.3787 26 70.4704 25.675 69.887 25.025C69.3037 24.375 69.012 23.5333 69.012 22.5V15.625H65.262V13.1H67.812C68.3287 13.1 68.6954 13 68.912 12.8C69.1287 12.5833 69.237 12.2083 69.237 11.675V8.55H72.212V13.1H77.462V15.625H72.212V23.475H77.462V26H72.612ZM87.5273 11.1C86.7773 11.1 86.2439 10.9417 85.9273 10.625C85.6273 10.3083 85.4773 9.925 85.4773 9.475V8.875C85.4773 8.425 85.6273 8.04167 85.9273 7.725C86.2439 7.40833 86.7773 7.25 87.5273 7.25C88.2773 7.25 88.8023 7.40833 89.1023 7.725C89.4189 8.04167 89.5773 8.425 89.5773 8.875V9.475C89.5773 9.925 89.4189 10.3083 89.1023 10.625C88.8023 10.9417 88.2773 11.1 87.5273 11.1ZM81.6773 23.475H85.9273V15.625H81.6773V13.1H89.1273V23.475H93.0773V26H81.6773V23.475ZM96.0925 23.475H100.042V15.625H95.8425V13.1H100.042V11C100.042 10.4833 100.109 10.0167 100.242 9.6C100.392 9.16667 100.617 8.8 100.917 8.5C101.217 8.18333 101.592 7.94167 102.042 7.775C102.509 7.59167 103.051 7.5 103.667 7.5H108.017V10.025H103.242V13.1H108.017V15.625H103.242V23.475H107.442V26H96.0925V23.475ZM120.233 13.1H123.483L117.308 28.3C116.958 29.1833 116.491 29.85 115.908 30.3C115.324 30.7667 114.499 31 113.433 31H111.083V28.475H114.158L115.133 25.875L109.933 13.1H113.333L115.308 18.5L116.683 22.6H116.858L118.233 18.5L120.233 13.1ZM135.423 26L134.198 21.575H129.023L127.823 26H124.523L129.423 8.55H133.973L138.898 26H135.423ZM131.723 11.775H131.523L129.598 18.9H133.648L131.723 11.775ZM141.138 26V23.55H145.063V11H141.138V8.55H152.238V11H148.313V23.55H152.238V26H141.138Z" fill="url(#paint0_linear_2_32)"/>
<g filter="url(#filter0_d_2_32)">
<path d="M31.7554 4.94103C31.8418 4.94103 31.9119 4.86815 31.9119 4.77825C31.9119 4.68836 31.8418 4.61548 31.7554 4.61548C31.669 4.61548 31.5989 4.68836 31.5989 4.77825C31.5989 4.86815 31.669 4.94103 31.7554 4.94103Z" fill="url(#paint1_linear_2_32)"/>
</g>
<g filter="url(#filter1_d_2_32)">
<path d="M5.94092 9.03804C6.16517 9.03804 6.34695 8.84898 6.34695 8.61576C6.34695 8.38254 6.16517 8.19348 5.94092 8.19348C5.71667 8.19348 5.53488 8.38254 5.53488 8.61576C5.53488 8.84898 5.71667 9.03804 5.94092 9.03804Z" fill="url(#paint2_linear_2_32)"/>
</g>
<g filter="url(#filter2_d_2_32)">
<path d="M1.75879 21.4063C1.98304 21.4063 2.16483 21.2173 2.16483 20.984C2.16483 20.7508 1.98304 20.5618 1.75879 20.5618C1.53454 20.5618 1.35275 20.7508 1.35275 20.984C1.35275 21.2173 1.53454 21.4063 1.75879 21.4063Z" fill="url(#paint3_linear_2_32)"/>
</g>
<g filter="url(#filter3_d_2_32)">
<path d="M25.7994 24.8016C26.0236 24.8016 26.2054 24.6125 26.2054 24.3793C26.2054 24.1461 26.0236 23.957 25.7994 23.957C25.5751 23.957 25.3933 24.1461 25.3933 24.3793C25.3933 24.6125 25.5751 24.8016 25.7994 24.8016Z" fill="url(#paint4_linear_2_32)"/>
</g>
<g filter="url(#filter4_d_2_32)">
<path d="M6.78417 17.6515C6.87061 17.6515 6.94069 17.5786 6.94069 17.4887C6.94069 17.3988 6.87061 17.3259 6.78417 17.3259C6.69773 17.3259 6.62766 17.3988 6.62766 17.4887C6.62766 17.5786 6.69773 17.6515 6.78417 17.6515Z" fill="url(#paint5_linear_2_32)"/>
</g>
<g filter="url(#filter5_d_2_32)">
<path d="M12.7809 4.51158C12.9167 4.51158 13.0268 4.39706 13.0268 4.25579C13.0268 4.11452 12.9167 4 12.7809 4C12.645 4 12.5349 4.11452 12.5349 4.25579C12.5349 4.39706 12.645 4.51158 12.7809 4.51158Z" fill="url(#paint6_linear_2_32)"/>
</g>
<g filter="url(#filter6_d_2_32)">
<path d="M3.48414 15.9061C3.40413 15.9187 3.32969 15.8679 3.30602 15.783C3.08414 15.0289 2.96745 14.9374 2.24182 14.965C2.15808 14.9675 2.08436 14.906 2.0723 14.8228C2.06008 14.7385 2.11225 14.6595 2.19265 14.6339C2.88669 14.4199 2.96142 14.3161 2.97862 13.5257C2.98067 13.438 3.03513 13.3669 3.11403 13.3545C3.19515 13.3417 3.26848 13.3929 3.29437 13.4773C3.51386 14.2306 3.63055 14.3221 4.35507 14.2946C4.4412 14.2929 4.51347 14.3525 4.52587 14.4379C4.53793 14.521 4.48797 14.5997 4.40536 14.6257C3.71053 14.8421 3.63675 14.9446 3.62177 15.7346C3.61767 15.8239 3.56193 15.894 3.48414 15.9061Z" fill="url(#paint7_linear_2_32)"/>
</g>
<path d="M16.8865 9.19353C16.6755 9.27642 16.5349 9.48608 16.5349 9.72008C16.5349 9.95408 16.6755 10.1636 16.8865 10.2465C18.5693 10.9032 19.8972 12.2842 20.5287 14.0344C20.6083 14.2537 20.8099 14.4001 21.0349 14.4001C21.2599 14.4001 21.4615 14.2537 21.5411 14.0344C22.1726 12.2842 23.5005 10.9032 25.1833 10.2465C25.3943 10.1636 25.5349 9.95408 25.5349 9.72008C25.5349 9.48608 25.3943 9.27642 25.1833 9.19353C23.5005 8.53688 22.1726 7.15583 21.5411 5.40566C21.4615 5.18629 21.2599 5.04004 21.0349 5.04004C20.8099 5.04004 20.6083 5.18629 20.5287 5.40566C19.8972 7.15583 18.5693 8.53688 16.8865 9.19353ZM11.149 8.61342C11.0271 8.33553 10.7599 8.16008 10.4693 8.16008C10.1787 8.16008 9.91148 8.33553 9.78958 8.61342C8.19229 12.2001 5.42064 15.0815 1.97082 16.7401C1.70363 16.8667 1.53488 17.1446 1.53488 17.4517C1.53488 17.7589 1.70363 18.0318 1.97082 18.1586C5.41943 19.8151 8.19339 22.698 9.78488 26.2853C9.90678 26.5632 10.174 26.7386 10.4646 26.7386C10.7552 26.7386 11.0224 26.5632 11.1443 26.2853C12.7388 22.6948 15.5106 19.8121 18.963 18.1537C19.2302 18.0271 19.399 17.7492 19.399 17.4469C19.399 17.1446 19.2302 16.8667 18.963 16.7401C15.5138 15.0849 12.7418 12.2 11.149 8.61342ZM20.5287 21.0056C19.8972 22.7558 18.5693 24.1368 16.8865 24.7935C16.6755 24.8764 16.5349 25.0861 16.5349 25.3201C16.5349 25.5541 16.6755 25.7636 16.8865 25.8465C18.5693 26.5032 19.8972 27.8842 20.5287 29.6344C20.6083 29.8537 20.8099 30 21.0349 30C21.2599 30 21.4615 29.8537 21.5411 29.6344C22.1726 27.8842 23.5005 26.5032 25.1833 25.8465C25.3943 25.7636 25.5349 25.5541 25.5349 25.3201C25.5349 25.0861 25.3943 24.8764 25.1833 24.7935C23.5005 24.1368 22.1726 22.7558 21.5411 21.0056C21.4615 20.7863 21.2599 20.6401 21.0349 20.6401C20.8099 20.6401 20.6083 20.7863 20.5287 21.0056Z" fill="url(#paint8_linear_2_32)"/>
<path d="M13.2283 19.0857C6.06413 21.6733 0.59967 24.7987 1.02303 26.0665C1.44639 27.3342 7.59725 26.2643 14.7614 23.6767C21.9255 21.0891 27.39 17.9637 26.9666 16.696C26.5432 15.4282 20.3924 16.4981 13.2283 19.0857Z" stroke="url(#paint9_linear_2_32)" stroke-width="0.549291"/>
<g style="mix-blend-mode:screen" filter="url(#filter7_f_2_32)">
<path d="M13.2283 19.0855C6.06413 21.6731 0.59967 24.7985 1.02303 26.0662C1.44639 27.334 7.59725 26.2641 14.7614 23.6765C21.9255 21.0889 27.39 17.9635 26.9666 16.6957C26.5432 15.4279 20.3924 16.4979 13.2283 19.0855Z" stroke="url(#paint10_linear_2_32)" stroke-width="0.549291"/>
</g>
<g filter="url(#filter8_d_2_32)">
<path d="M24.1286 10.3618C24.0182 10.3453 23.9393 10.2474 23.9404 10.1256C23.9353 9.03816 23.8161 8.86916 22.8473 8.60594C22.7358 8.57474 22.6619 8.46284 22.6777 8.34812C22.6938 8.23175 22.7929 8.14897 22.9088 8.14834C23.907 8.15229 24.0454 8.046 24.3698 7.0094C24.406 6.89443 24.5051 6.82298 24.614 6.8392C24.726 6.85589 24.8033 6.95363 24.8052 7.07593C24.8076 8.16124 24.9267 8.33034 25.894 8.59325C26.0084 8.62653 26.0811 8.735 26.0649 8.85294C26.0491 8.96765 25.953 9.05096 25.834 9.05116C24.8338 9.05012 24.6972 9.15496 24.3759 10.192C24.3364 10.3082 24.236 10.3778 24.1286 10.3618Z" fill="url(#paint11_linear_2_32)"/>
</g>
<defs>
<filter id="filter0_d_2_32" x="31.2574" y="4.27399" width="0.995972" height="1.00852" filterUnits="userSpaceOnUse" color-interpolation-filters="sRGB">
<feFlood flood-opacity="0" result="BackgroundImageFix"/>
<feColorMatrix in="SourceAlpha" type="matrix" values="0 0 0 0 0 0 0 0 0 0 0 0 0 0 0 0 0 0 127 0" result="hardAlpha"/>
<feOffset/>
<feGaussianBlur stdDeviation="0.170743"/>
<feComposite in2="hardAlpha" operator="out"/>
<feColorMatrix type="matrix" values="0 0 0 0 0.592157 0 0 0 0 0.392157 0 0 0 0 1 0 0 0 1 0"/>
<feBlend mode="normal" in2="BackgroundImageFix" result="effect1_dropShadow_2_32"/>
<feBlend mode="normal" in="SourceGraphic" in2="effect1_dropShadow_2_32" result="shape"/>
</filter>
<filter id="filter1_d_2_32" x="4.64898" y="7.30758" width="2.58387" height="2.61635" filterUnits="userSpaceOnUse" color-interpolation-filters="sRGB">
<feFlood flood-opacity="0" result="BackgroundImageFix"/>
<feColorMatrix in="SourceAlpha" type="matrix" values="0 0 0 0 0 0 0 0 0 0 0 0 0 0 0 0 0 0 127 0" result="hardAlpha"/>
<feOffset/>
<feGaussianBlur stdDeviation="0.442949"/>
<feComposite in2="hardAlpha" operator="out"/>
<feColorMatrix type="matrix" values="0 0 0 0 0.592157 0 0 0 0 0.392157 0 0 0 0 1 0 0 0 1 0"/>
<feBlend mode="normal" in2="BackgroundImageFix" result="effect1_dropShadow_2_32"/>
<feBlend mode="normal" in="SourceGraphic" in2="effect1_dropShadow_2_32" result="shape"/>
</filter>
<filter id="filter2_d_2_32" x="0.466855" y="19.6759" width="2.58388" height="2.61629" filterUnits="userSpaceOnUse" color-interpolation-filters="sRGB">
<feFlood flood-opacity="0" result="BackgroundImageFix"/>
<feColorMatrix in="SourceAlpha" type="matrix" values="0 0 0 0 0 0 0 0 0 0 0 0 0 0 0 0 0 0 127 0" result="hardAlpha"/>
<feOffset/>
<feGaussianBlur stdDeviation="0.442949"/>
<feComposite in2="hardAlpha" operator="out"/>
<feColorMatrix type="matrix" values="0 0 0 0 0.592157 0 0 0 0 0.392157 0 0 0 0 1 0 0 0 1 0"/>
<feBlend mode="normal" in2="BackgroundImageFix" result="effect1_dropShadow_2_32"/>
<feBlend mode="normal" in="SourceGraphic" in2="effect1_dropShadow_2_32" result="shape"/>
</filter>
<filter id="filter3_d_2_32" x="24.5074" y="23.0711" width="2.5839" height="2.61639" filterUnits="userSpaceOnUse" color-interpolation-filters="sRGB">
<feFlood flood-opacity="0" result="BackgroundImageFix"/>
<feColorMatrix in="SourceAlpha" type="matrix" values="0 0 0 0 0 0 0 0 0 0 0 0 0 0 0 0 0 0 127 0" result="hardAlpha"/>
<feOffset/>
<feGaussianBlur stdDeviation="0.442949"/>
<feComposite in2="hardAlpha" operator="out"/>
<feColorMatrix type="matrix" values="0 0 0 0 0.592157 0 0 0 0 0.392157 0 0 0 0 1 0 0 0 1 0"/>
<feBlend mode="normal" in2="BackgroundImageFix" result="effect1_dropShadow_2_32"/>
<feBlend mode="normal" in="SourceGraphic" in2="effect1_dropShadow_2_32" result="shape"/>
</filter>
<filter id="filter4_d_2_32" x="6.28617" y="16.9844" width="0.996006" height="1.00857" filterUnits="userSpaceOnUse" color-interpolation-filters="sRGB">
<feFlood flood-opacity="0" result="BackgroundImageFix"/>
<feColorMatrix in="SourceAlpha" type="matrix" values="0 0 0 0 0 0 0 0 0 0 0 0 0 0 0 0 0 0 127 0" result="hardAlpha"/>
<feOffset/>
<feGaussianBlur stdDeviation="0.170743"/>
<feComposite in2="hardAlpha" operator="out"/>
<feColorMatrix type="matrix" values="0 0 0 0 0.592157 0 0 0 0 0.392157 0 0 0 0 1 0 0 0 1 0"/>
<feBlend mode="normal" in2="BackgroundImageFix" result="effect1_dropShadow_2_32"/>
<feBlend mode="normal" in="SourceGraphic" in2="effect1_dropShadow_2_32" result="shape"/>
</filter>
<filter id="filter5_d_2_32" x="11.9982" y="3.46338" width="1.56515" height="1.58483" filterUnits="userSpaceOnUse" color-interpolation-filters="sRGB">
<feFlood flood-opacity="0" result="BackgroundImageFix"/>
<feColorMatrix in="SourceAlpha" type="matrix" values="0 0 0 0 0 0 0 0 0 0 0 0 0 0 0 0 0 0 127 0" result="hardAlpha"/>
<feOffset/>
<feGaussianBlur stdDeviation="0.268311"/>
<feComposite in2="hardAlpha" operator="out"/>
<feColorMatrix type="matrix" values="0 0 0 0 0.592157 0 0 0 0 0.392157 0 0 0 0 1 0 0 0 1 0"/>
<feBlend mode="normal" in2="BackgroundImageFix" result="effect1_dropShadow_2_32"/>
<feBlend mode="normal" in="SourceGraphic" in2="effect1_dropShadow_2_32" result="shape"/>
</filter>
<filter id="filter6_d_2_32" x="0.988902" y="12.5525" width="4.62038" height="4.71871" filterUnits="userSpaceOnUse" color-interpolation-filters="sRGB">
<feFlood flood-opacity="0" result="BackgroundImageFix"/>
<feColorMatrix in="SourceAlpha" type="matrix" values="0 0 0 0 0 0 0 0 0 0 0 0 0 0 0 0 0 0 127 0" result="hardAlpha"/>
<feOffset dy="0.281606"/>
<feGaussianBlur stdDeviation="0.540812"/>
<feComposite in2="hardAlpha" operator="out"/>
<feColorMatrix type="matrix" values="0 0 0 0 0.220722 0 0 0 0 0.210451 0 0 0 0 0.241667 0 0 0 0.6 0"/>
<feBlend mode="normal" in2="BackgroundImageFix" result="effect1_dropShadow_2_32"/>
<feBlend mode="normal" in="SourceGraphic" in2="effect1_dropShadow_2_32" result="shape"/>
</filter>
<filter id="filter7_f_2_32" x="0.470792" y="15.6334" width="27.048" height="11.4952" filterUnits="userSpaceOnUse" color-interpolation-filters="sRGB">
<feFlood flood-opacity="0" result="BackgroundImageFix"/>
<feBlend mode="normal" in="SourceGraphic" in2="BackgroundImageFix" result="shape"/>
<feGaussianBlur stdDeviation="0.127195" result="effect1_foregroundBlur_2_32"/>
</filter>
<filter id="filter8_d_2_32" x="20.5451" y="5.26113" width="7.65249" height="7.78806" filterUnits="userSpaceOnUse" color-interpolation-filters="sRGB">
<feFlood flood-opacity="0" result="BackgroundImageFix"/>
<feColorMatrix in="SourceAlpha" type="matrix" values="0 0 0 0 0 0 0 0 0 0 0 0 0 0 0 0 0 0 127 0" result="hardAlpha"/>
<feOffset dy="0.554677"/>
<feGaussianBlur stdDeviation="1.06523"/>
<feComposite in2="hardAlpha" operator="out"/>
<feColorMatrix type="matrix" values="0 0 0 0 0.296824 0 0 0 0 0.244184 0 0 0 0 0.404167 0 0 0 0.6 0"/>
<feBlend mode="normal" in2="BackgroundImageFix" result="effect1_dropShadow_2_32"/>
<feBlend mode="normal" in="SourceGraphic" in2="effect1_dropShadow_2_32" result="shape"/>
</filter>
<linearGradient id="paint0_linear_2_32" x1="37.7566" y1="4.5" x2="52.2566" y2="47" gradientUnits="userSpaceOnUse">
<stop stop-color="#868CFF"/>
<stop offset="1" stop-color="#4318FF"/>
</linearGradient>
<linearGradient id="paint1_linear_2_32" x1="31.6081" y1="4.76142" x2="31.9193" y2="4.7677" gradientUnits="userSpaceOnUse">
<stop stop-color="#26A4FF"/>
<stop offset="1" stop-color="#0D9AFF"/>
</linearGradient>
<linearGradient id="paint2_linear_2_32" x1="5.55894" y1="8.57208" x2="6.36629" y2="8.58843" gradientUnits="userSpaceOnUse">
<stop stop-color="#26A4FF"/>
<stop offset="1" stop-color="#0D9AFF"/>
</linearGradient>
<linearGradient id="paint3_linear_2_32" x1="1.37681" y1="20.9404" x2="2.18417" y2="20.9566" gradientUnits="userSpaceOnUse">
<stop stop-color="#26A4FF"/>
<stop offset="1" stop-color="#0D9AFF"/>
</linearGradient>
<linearGradient id="paint4_linear_2_32" x1="25.4175" y1="24.3356" x2="26.2248" y2="24.352" gradientUnits="userSpaceOnUse">
<stop stop-color="#26A4FF"/>
<stop offset="1" stop-color="#0D9AFF"/>
</linearGradient>
<linearGradient id="paint5_linear_2_32" x1="6.63694" y1="17.472" x2="6.94815" y2="17.4782" gradientUnits="userSpaceOnUse">
<stop stop-color="#26A4FF"/>
<stop offset="1" stop-color="#0D9AFF"/>
</linearGradient>
<linearGradient id="paint6_linear_2_32" x1="12.5495" y1="4.22933" x2="13.0385" y2="4.23921" gradientUnits="userSpaceOnUse">
<stop stop-color="#26A4FF"/>
<stop offset="1" stop-color="#0D9AFF"/>
</linearGradient>
<linearGradient id="paint7_linear_2_32" x1="4.43403" y1="14.3173" x2="1.99721" y2="14.7212" gradientUnits="userSpaceOnUse">
<stop stop-color="#26A4FF"/>
<stop offset="1" stop-color="#0D9AFF"/>
</linearGradient>
<linearGradient id="paint8_linear_2_32" x1="1.53488" y1="5.04004" x2="26.4757" y2="29.0216" gradientUnits="userSpaceOnUse">
<stop stop-color="#868CFF"/>
<stop offset="1" stop-color="#4318FF"/>
</linearGradient>
<linearGradient id="paint9_linear_2_32" x1="1.43908" y1="27.8028" x2="0.370687" y2="24.7888" gradientUnits="userSpaceOnUse">
<stop stop-color="#3F5FFF"/>
<stop offset="1" stop-color="#3F5FFF" stop-opacity="0"/>
</linearGradient>
<linearGradient id="paint10_linear_2_32" x1="1.43908" y1="27.8025" x2="0.370687" y2="24.7886" gradientUnits="userSpaceOnUse">
<stop stop-color="#1DA0FF"/>
<stop offset="1" stop-color="#199FFF" stop-opacity="0.13"/>
</linearGradient>
<linearGradient id="paint11_linear_2_32" x1="25.9896" y1="8.65576" x2="22.6083" y2="8.25926" gradientUnits="userSpaceOnUse">
<stop stop-color="#26A4FF"/>
<stop offset="1" stop-color="#0D9AFF"/>
</linearGradient>
</defs>
</svg>
